<svg width="50" height="50" viewBox="0 0 50 50" fill="none" xmlns="http://www.w3.org/2000/svg">
<path d="M8.08972 17.4064L5.54285 15.09C5.54285 15.09 5.43738 13.9377 6.33972 13.5705C7.36707 13.1525 8.35535 13.6447 8.35535 13.6447L9.91394 16.6447L8.08972 17.4064ZM41.6796 17.4845L39.4764 15.7385L40.9569 13.5744C40.9569 13.5744 41.7225 12.9533 43.0468 13.6135C44.0585 14.1174 44.3085 15.0939 44.1913 15.3947C44.078 15.6955 41.6796 17.4845 41.6796 17.4845Z" fill="#B40E1C"/>
<path d="M8.8868 16.9882L7.65633 16.6562C7.65633 16.6562 7.51571 16.0742 7.78133 15.5585C8.05868 15.0234 8.60165 15.082 8.60165 15.082C8.60165 15.082 7.29305 14.4453 7.86337 12.8867C8.43368 11.3281 10.1798 11.6718 10.1798 11.6718C10.1798 11.6718 10.1407 10.6835 10.9415 10.0742C11.7384 9.4648 12.3477 9.92183 12.3477 9.92183C12.3477 9.92183 11.7306 7.94917 13.2579 7.03511C14.5626 6.25386 15.461 6.99605 15.461 6.99605C15.461 6.99605 15.9884 5.67573 17.4337 5.64839C18.5157 5.62886 18.8438 6.04683 18.8438 6.04683C18.8438 6.04683 19.2227 5.28511 19.8321 4.94527C20.4415 4.60152 20.8048 4.6523 20.8048 4.6523C20.8048 4.6523 20.5274 3.70698 20.8204 2.93355C21.336 1.56636 22.7579 1.26167 23.8204 1.5273C25.2774 1.89058 25.0977 2.89839 25.0977 2.89839C25.0977 2.89839 25.836 2.4023 26.5196 2.48042C27.2032 2.55464 27.5626 3.00776 27.5626 3.00776C27.5626 3.00776 28.0391 1.60933 29.6329 1.60933C31.2306 1.60933 31.6837 2.55855 31.7618 3.2812C31.8399 4.00386 31.3595 4.85542 31.3595 4.85542C31.3595 4.85542 31.5899 4.94527 31.6602 5.49214C31.7149 5.9062 31.5548 6.27339 31.5548 6.27339C31.5548 6.27339 32.2892 5.69526 33.754 6.27339C36.1837 7.23042 35.6759 9.81636 35.6759 9.81636C35.6759 9.81636 36.379 9.73433 36.9102 9.96089C37.5196 10.2226 37.8009 10.6523 37.8009 10.6523C37.8009 10.6523 37.9376 9.51948 39.3595 9.51167C40.8438 9.50386 42.0587 12.2851 41.7931 13.082C41.5274 13.8789 40.8048 14.0703 40.8048 14.0703C40.8048 14.0703 41.4649 14.2578 41.711 15.0585C42.004 16.0039 41.7618 17.0078 41.7618 17.0078C41.7618 17.0078 31.4571 23.2968 31.3438 23.2578C31.2306 23.2187 18.461 24.207 18.461 24.207L8.8868 16.9882Z" fill="#FFB91F"/>
<path d="M13.6094 18.9334C13.6094 18.8514 13.7266 18.5115 13.9571 18.3631C14.2422 18.1795 14.668 18.16 14.668 18.16C14.668 18.16 14.1993 17.9373 13.9375 17.2029C13.7657 16.7264 13.9766 16.2108 13.9766 16.2108C13.9766 16.2108 12.7383 16.2694 12.4532 15.3319C12.168 14.3944 12.6172 14.2733 12.6172 14.2733C12.6172 14.2733 12.1211 11.6131 14.2032 11.5662C17.0508 11.5037 16.5626 15.1248 16.5626 15.1248C16.5626 15.1248 16.9688 15.1248 17.2149 15.3475C17.4571 15.5701 17.5391 15.7967 17.5391 15.7967C17.5391 15.7967 18.0704 14.9959 19.3282 15.1873C22.2969 15.6365 20.9141 18.5428 20.9141 18.5428C20.9141 18.5428 20.3633 17.0389 19.4102 16.9764C18.4532 16.9139 17.2735 17.5662 17.2735 17.5662C17.2735 17.5662 19.0821 17.7889 19.5704 18.7459C20.0586 19.7029 20.0196 21.0037 20.0196 21.0037C20.0196 21.0037 16.3985 22.0623 16.3165 21.9412C16.2305 21.824 13.6094 18.9334 13.6094 18.9334Z" fill="#FCE193"/>
<path d="M15.8632 15.7616C15.6015 15.6484 14.8671 16.2929 14.8515 16.7734C14.8359 17.2538 15.2421 17.8671 15.7265 17.9101C16.207 17.9531 16.6874 17.457 16.6874 16.9765C16.6874 16.7343 16.1874 15.9023 15.8632 15.7616Z" fill="#E17A2C"/>
<path d="M18.0743 10.3713C18.0743 10.3713 16.1251 10.09 16.1642 11.6994C16.2149 13.8322 18.6173 13.5158 18.6368 13.6291C18.6563 13.7424 18.754 14.4689 18.754 14.4689C18.754 14.4689 19.7032 14.3596 20.6212 14.9025C21.5392 15.4455 21.9337 16.0822 21.9337 16.0822C21.9337 16.0822 22.1212 15.2033 22.3829 14.8283C22.6446 14.4533 22.9259 14.1721 22.9259 14.1721C22.9259 14.1721 22.9259 13.7033 22.7931 13.3283C22.6993 13.0588 22.4767 12.9181 22.4767 12.9181C22.4767 12.9181 24.586 11.9181 23.5235 10.258C22.3243 8.3869 20.4142 10.1252 20.4142 10.1252C20.4142 10.1252 19.6642 9.03924 18.7306 9.30096C17.7931 9.56268 18.0743 10.3713 18.0743 10.3713ZM22.8673 17.3908C22.8673 17.3908 22.3048 15.4611 23.3556 14.9181C24.4063 14.3752 25.0977 14.9924 25.1329 14.8791C25.1681 14.7658 26.8009 13.0236 28.2032 13.0627C30.2813 13.1174 30.7579 14.4377 30.8048 14.5783C31.0352 15.2502 30.7306 16.34 30.7306 16.34C30.7306 16.34 31.5157 15.1213 32.6407 15.2346C33.7657 15.3478 33.8907 16.2463 33.8907 16.2463C33.8907 16.2463 35.1329 17.0158 35.0743 17.7463C35.0196 18.4767 34.2306 19.0197 34.2306 19.0197L32.3204 20.8908L30.2618 20.1799C30.2618 20.1799 29.9806 19.2424 29.9806 18.6642C29.9806 18.0822 30.0352 17.6174 30.0352 17.6174C30.0352 17.6174 29.4727 17.9181 29.0821 18.0275C28.6876 18.1408 27.8634 18.1603 27.8634 18.1603C27.8634 18.1603 27.8321 17.6877 27.0392 17.1486C25.3009 15.9689 22.8673 17.3908 22.8673 17.3908Z" fill="#FCE193"/>
<path d="M23.6914 19.992C23.6914 19.992 23.0547 17.6795 24.8906 17.6326C27.0821 17.5779 27.3985 19.5233 27.4766 20.6092C27.5508 21.6951 24.6485 23.3631 24.5352 23.3045C24.4219 23.2498 21.7031 21.5779 21.7031 21.5779C21.7031 21.5779 21.4961 20.9764 21.9531 20.4412C22.4297 19.8748 23.6914 19.992 23.6914 19.992ZM35.8828 18.9256C35.8828 18.9256 35.2461 18.4022 35.4336 17.41C35.6211 16.4178 36.3867 16.3631 36.3867 16.3631C36.3867 16.3631 35.8047 15.4647 36.086 14.8826C36.3672 14.3006 36.8164 14.1717 38.2578 14.1912C39.6992 14.2108 40.4297 14.6014 40.8985 15.1092C41.3203 15.5623 41.0469 16.9451 41.0469 16.9451C41.0469 16.9451 38.9141 19.5115 38.668 19.4529C38.4258 19.3943 35.8828 18.9256 35.8828 18.9256ZM29.9063 12.242C29.9063 12.242 30.6563 12.7108 30.8985 13.0662C31.1406 13.4217 31.461 14.0975 31.461 14.0975C31.461 14.0975 31.6172 12.2693 32.3711 11.3787C33.1953 10.4061 34.2695 10.4451 34.2891 10.4451C34.4922 10.4451 34.8321 8.92951 34.0469 8.12482C33.0625 7.11701 31.3711 7.46857 31.3867 7.62091C31.4024 7.77326 32.0039 8.49982 31.6133 10.1873C31.25 11.7264 29.9063 12.242 29.9063 12.242ZM24.6641 12.5975C24.9649 12.7498 25.5 12.2459 25.957 12.035C26.4805 11.7928 27.1563 11.699 27.1758 11.4373C27.1953 11.1756 26.4453 10.2381 25.3594 10.7615C24.2735 11.285 24.3281 12.4295 24.6641 12.5975ZM8.52346 13.5037C8.42971 14.4569 9.40236 14.7537 9.40236 14.7537C9.40236 14.7537 9.28127 15.6326 9.62892 16.1404C9.91017 16.5506 10.4922 17.0584 10.7344 17.0037C10.9766 16.949 11.7461 16.2186 11.7461 16.16C11.7461 16.1053 11.7031 14.0076 11.2578 13.2576C10.6406 12.2029 8.69143 11.8123 8.52346 13.5037ZM11.9336 12.242C12.1953 12.242 12.457 11.6444 12.6094 11.4178C12.7578 11.1912 13.3203 10.8201 13.3203 10.8201C13.3203 10.8201 12.4571 10.2225 11.9141 10.7654C11.3711 11.3045 11.5391 12.242 11.9336 12.242ZM14.0274 10.5389C14.0274 10.5389 14.5508 10.4842 14.8516 10.4998C15.1524 10.5193 15.6563 10.6131 15.6563 10.6131C15.6563 10.6131 15.7305 10.1248 16.2735 9.76935C16.8164 9.41388 17.3203 9.52716 17.3203 9.52716C17.3203 9.52716 17.4336 8.85138 17.8633 8.55451C18.293 8.25372 18.5547 8.25372 18.5547 8.25372C18.5547 8.25372 18.9531 7.23029 18.3672 6.84748C16.6992 5.76154 15.8438 7.94123 15.5586 7.9881C15.3477 8.02326 14.6133 7.29279 13.8086 7.85529C12.4414 8.81623 14.0274 10.5389 14.0274 10.5389ZM19.3086 8.08576C19.3086 8.08576 19.7578 8.19904 20.0938 8.40216C20.4297 8.60529 20.9375 8.96466 20.9375 8.96466L23.4102 8.89044C23.4102 8.89044 23.9531 8.17951 24.7383 7.85919C25.3789 7.59748 26.125 7.57794 26.125 7.57794C26.125 7.57794 26.1953 5.74982 24.6836 5.27326C22.7735 4.6756 22.1367 6.62091 22.1367 6.62091C22.1367 6.62091 21.5742 5.9881 20.918 6.00372C19.461 6.04279 19.3086 8.08576 19.3086 8.08576Z" fill="#FCE193"/>
<path d="M22.0974 7.42969C21.8709 7.42969 20.5427 8.57031 20.5076 8.68359C20.4685 8.79687 20.824 8.98438 20.863 9.09375C20.9021 9.20703 23.2966 8.94531 23.4295 8.85156C23.5584 8.75781 22.6052 7.42969 22.0974 7.42969ZM19.1052 11.2852C19.117 11.5078 20.2107 12.9687 20.5466 13.0273C20.8826 13.0859 21.992 11.8477 21.6716 11.5664C21.5232 11.4336 20.4177 11.5859 20.4177 11.5859C20.4177 11.5859 20.3982 10.7617 20.3045 10.6328C20.2068 10.5 19.0857 10.9141 19.1052 11.2852Z" fill="#E17A2C"/>
<path d="M21.8202 4.88265C22.1053 4.89046 22.3631 3.83577 22.6991 3.49593C23.035 3.15608 23.8397 2.82015 23.6522 2.29671C23.4647 1.77327 22.0233 1.92171 21.5545 2.69124C21.035 3.54671 21.1991 4.86312 21.8202 4.88265ZM25.8084 4.6014C25.867 4.85921 26.5936 5.1639 26.7069 5.2928C26.8202 5.42562 27.3436 5.89046 27.3436 5.89046C27.3436 5.89046 28.5428 5.58968 29.2538 5.77718C29.9647 5.96468 30.3006 6.46858 30.5077 6.33968C30.7147 6.20686 30.6014 5.64827 30.4881 5.46077C30.3749 5.27327 30.1522 4.9178 30.1522 4.9178C30.1522 4.9178 31.2303 3.24593 30.1131 2.96858C28.5233 2.57405 28.203 4.18733 27.9959 4.22249C27.7889 4.25765 27.1913 3.62483 26.535 3.71858C25.8827 3.81624 25.7303 4.26546 25.8084 4.6014ZM26.7069 9.4139C26.9725 10.0037 27.8124 10.0506 27.8124 10.0506C27.8124 10.0506 28.2225 11.3631 29.0663 11.4725C29.91 11.5858 30.4647 10.7069 30.6405 9.9764C30.867 9.0389 30.8709 7.01155 28.785 7.03499C27.2108 7.05452 26.5389 9.0389 26.7069 9.4139ZM34.9803 16.0975C35.242 16.0897 35.0663 14.5506 35.8944 13.9256C36.7889 13.2498 37.4881 13.3748 38.4061 13.4373C39.3592 13.4998 40.0038 13.7967 40.203 13.5311C40.453 13.203 40.6053 10.9139 39.3045 10.7225C38.535 10.6092 38.3319 11.3592 38.3319 11.3592C38.3319 11.3592 37.5467 11.1912 37.1131 11.9764C36.8163 12.5194 36.7967 12.8748 36.6639 12.9139C36.6053 12.9295 34.5975 9.82796 33.0311 11.7147C31.4022 13.6795 34.3788 15.3084 34.3788 15.3084C34.3788 15.3084 34.4764 16.117 34.9803 16.0975Z" fill="#FCE193"/>
<path d="M29.0471 7.37491C28.9416 7.44523 28.8986 9.26554 28.9924 9.28507C29.0861 9.3046 30.2658 9.94132 30.4338 9.77335C30.6017 9.60538 30.6017 8.7421 30.301 8.18351C30.1135 7.82413 29.4221 7.12882 29.0471 7.37491ZM26.5549 5.08976C26.5392 5.28116 26.7971 6.28898 27.0978 6.32413C27.5978 6.38663 28.5197 5.85538 28.6135 5.66788C28.7072 5.48038 28.5392 4.93741 27.7892 4.74991C27.0471 4.56632 26.5744 4.82804 26.5549 5.08976ZM26.7424 16.4921C27.0041 16.7734 27.9103 16.0077 28.2385 16.1562C28.6135 16.3241 28.2385 17.2968 28.6486 17.4101C29.0588 17.5234 29.883 16.1913 29.7892 15.6132C29.7502 15.371 29.2658 15.0507 28.7424 14.8632C28.2189 14.6757 27.508 14.5468 27.1877 14.7499C26.8674 14.953 26.2736 15.9882 26.7424 16.4921ZM37.6955 17.8398C37.6955 17.8398 37.6564 16.6405 37.9768 16.0429C38.2932 15.4452 39.1018 15.539 39.2307 15.6874C39.3596 15.8359 39.8127 16.9218 39.8127 16.9218L38.8596 18.5507L37.6955 17.8398Z" fill="#E17A2C"/>
<path d="M24.7461 23.9649L21.0117 22.504L20.9062 22.3399C20.7187 22.0469 18.2578 21.6524 18.2578 21.6524L18.0391 21.6094L14.9727 20.9493L14.8867 20.8008C14.6953 20.4766 12.2266 19.5977 12.2266 19.5977L9.90625 18.6602L9.84375 18.5079C9.63672 18.0118 8.06641 17.1524 8.03125 17.2227L7.33203 16.8751C7.51562 16.504 8.09766 15.8907 8.98047 16.2462C9.75 16.5548 10.6289 17.6212 10.8203 18.043L12.082 18.6954C12.3906 18.5001 12.9727 18.3048 13.7695 18.5821C14.9258 18.9883 15.2305 19.8829 15.4687 20.254L18.0078 20.8008C18.2773 20.5821 18.8477 20.2149 19.6094 20.3399C20.9414 20.5587 21.2656 21.3282 21.543 21.7188L24.4687 21.9688C24.7617 21.5665 25.5078 20.7149 26.668 20.5548C27.7539 20.4024 28.5469 20.7774 28.8672 21.1524L31.6641 20.211C31.8984 19.8477 32.707 18.8204 33.9727 18.5899C35.1523 18.3751 36.0781 18.9727 36.5039 19.2423L38.3711 18.2852C38.5703 17.9493 39.2148 16.9024 40.1992 16.6016C41.4297 16.2305 42.2187 17.0079 42.2539 17.0352L41.7266 17.6133C41.7109 17.5977 39.1445 19.0548 39.1367 19.0665L38.5859 20.0157L36.4297 20.1563L36.2344 20.0001C36.2266 19.9923 32.2773 20.7071 32.2695 20.7188L32.1953 20.8555L28.6641 22.043L28.4922 21.8594C28.4688 21.836 24.7461 23.9649 24.7461 23.9649Z" fill="#DFDFDF"/>
<path d="M42.0781 18.1955C41.9883 18.2033 41.2539 17.172 40.2969 17.5705C39.3398 17.9728 38.4258 19.6173 38.4258 19.6173L35.4453 20.0861C35.4453 20.0861 35.043 19.2736 33.9297 19.5861C32.8164 19.8986 31.8164 21.2658 31.793 21.1759C31.7695 21.0861 28.5117 21.9181 28.5117 21.9181C28.5117 21.9181 27.8672 21.1994 26.7187 21.4845C25.5312 21.7814 24.8867 23.2384 24.8867 23.2384L21.1875 22.5041C21.1875 22.5041 20.5547 21.4416 19.5977 21.3087C18.6406 21.1759 18.0195 21.8009 18.0195 21.8009L15.2578 21.1291C15.2578 21.1291 14.8359 19.9728 13.6328 19.5705C12.4297 19.1681 11.8516 19.6798 11.8516 19.6798L10.0625 18.465C10.0625 18.465 9.53516 17.5978 8.53125 17.1291C7.53125 16.6603 7.24219 17.4806 7.24219 17.4806L13.4766 43.7111L25.4141 48.5666L37.1992 43.4064C37.207 43.4103 42.3477 18.1681 42.0781 18.1955Z" fill="white"/>
<path d="M8.08984 17.4064L8.08203 17.379C7.97266 16.8673 7.6875 15.7071 7.01172 15.1798C6.13281 14.4962 5.54297 15.086 5.54297 15.086L12.3203 43.2814L13.9766 43.9142L8.08984 17.4064ZM12.4844 19.5235C12.4844 19.5235 12.3789 17.7618 10.9883 17.3439C9.88281 17.0118 9.83594 18.1485 9.83594 18.1485L15.332 44.4728L17.4297 45.3165L12.4844 19.5235ZM18.3828 21.5587C18.3828 21.5587 17.8164 19.6642 16.375 19.504C14.9336 19.3439 15.0781 20.5548 15.0781 20.5548L18.8086 45.8907L20.9063 46.7423L18.3828 21.5587ZM22.9648 21.0235C21.3828 20.8243 21.1641 22.4142 21.1641 22.4142L22.8008 47.5157L25.4258 48.5704L24.957 23.1095C24.957 23.1095 24.625 21.2345 22.9648 21.0235ZM32.0469 21.1212C32.0469 21.1212 32.1289 19.129 30.3477 19.6329C28.5664 20.1329 28.3711 21.8009 28.3711 21.8009L27.9258 47.4845L30.1367 46.504L32.0469 21.1212ZM38.6523 18.9845C38.6523 18.9845 38.5781 17.422 37.0508 17.7384C35.4492 18.0665 35.4336 19.6798 35.4336 19.6798L32.625 45.4337L34.7578 44.4923L38.6523 18.9845ZM42.7305 15.2423C41.418 15.8712 41.3047 17.5587 41.3047 17.5587L36.832 43.5821L38.9297 42.6525L44.207 15.3712C44.2031 15.3712 43.8789 14.6915 42.7305 15.2423Z" fill="#ED3D23"/>
</svg>
